<svg width="244" height="183" viewBox="0 0 244 183" version="1.1" xmlns="http://www.w3.org/2000/svg" xmlns:xlink="http://www.w3.org/1999/xlink">
<title>logo</title>
<desc>Created using Figma</desc>
<g id="Canvas" transform="translate(213 -999)">
<g id="logo">
<g id="Oval">
<mask id="mask0_outline" mask-type="alpha">
<g id="Mask">
<use xlink:href="#path0_fill" transform="translate(-212.675 999)" fill="#FFFFFF"/>
</g>
</mask>
<g id="Oval" mask="url(#mask0_outline)">
<use xlink:href="#path1_fill" transform="translate(-216.888 994.778)" fill="#338BC1"/>
</g>
</g>
<g id="Line">
<use xlink:href="#path2_fill" transform="matrix(0.999388 -0.0349757 0.0348235 0.999393 -116.698 1036.31)" fill="#338BC1"/>
</g>
</g>
</g>
<defs>
<path id="path0_fill" fill-rule="evenodd" d="M 121.351 181.961C 166.36 181.961 177.622 182.505 226.597 182.2C 236.842 164.363 242.702 143.675 242.702 121.616C 242.702 54.4494 188.371 0 121.351 0C 54.3307 0 0 54.4494 0 121.616C 0 143.703 5.8749 164.415 16.144 182.267C 56.6193 182.505 76.3693 181.961 121.351 181.961Z"/>
<path id="path1_fill" fill-rule="evenodd" d="M 18.4657 191.562L 103.735 44.989L 153.392 134.44L 178.423 85.8369L 232.777 191.375C 244.419 172.287 251.128 149.848 251.128 125.838C 251.128 56.3397 194.911 0 125.564 0C 56.2169 0 0 56.3397 0 125.838C 0 149.926 6.7532 172.433 18.4657 191.562Z"/>
<path id="path2_fill" d="M 0.269498 3.69528C -0.359691 2.43416 0.150367 0.900645 1.40874 0.270085C 2.66712 -0.360475 4.1973 0.150695 4.82649 1.41182L 76.1546 144.379C 76.7838 145.64 76.2738 147.174 75.0154 147.804C 73.757 148.435 72.2268 147.924 71.5976 146.663L 0.269498 3.69528Z"/>
</defs>
</svg>
